<?xml version="1.0" encoding="utf-8"?>
<!-- Generator: Adobe Illustrator 16.0.0, SVG Export Plug-In . SVG Version: 6.00 Build 0)  -->
<!DOCTYPE svg PUBLIC "-//W3C//DTD SVG 1.1//EN" "http://www.w3.org/Graphics/SVG/1.1/DTD/svg11.dtd">
<svg version="1.1" id="Layer_1" xmlns="http://www.w3.org/2000/svg" xmlns:xlink="http://www.w3.org/1999/xlink" x="0px" y="0px"
	 width="338px" height="47px" viewBox="0 0 338 47" enable-background="new 0 0 338 47" xml:space="preserve">
<g id="DREAMACHINE">
	<g>
		<path fill="#FFCC33" d="M30.154,23.26c0,4.704-1.448,8.416-4.344,11.137s-6.968,4.08-12.216,4.08H3.802v-30h10.176
			c5.056,0,9.016,1.336,11.88,4.008C28.722,15.156,30.154,18.748,30.154,23.26z M24.298,23.547c0-3.375-0.912-5.916-2.736-7.62
			c-1.824-1.704-4.464-2.556-7.92-2.556H9.658v20.208h4.272c3.232,0,5.768-0.853,7.608-2.556
			C23.378,29.318,24.298,26.828,24.298,23.547z"/>
		<path fill="#FFCC33" d="M45.034,27.771v10.703h-5.856v-30H49.69c3.712,0,6.576,0.816,8.592,2.448
			c2.016,1.632,3.024,3.856,3.024,6.672c0,2.112-0.561,3.904-1.68,5.376c-1.121,1.472-2.72,2.561-4.8,3.263l7.872,12.24h-6.672
			l-6.672-10.992L45.034,27.771z M44.985,23.164l4.368-0.096c1.855-0.096,3.312-0.567,4.368-1.416
			c1.056-0.847,1.584-2.071,1.584-3.672c0-3.072-2.177-4.608-6.528-4.608h-3.792V23.164z"/>
		<path fill="#FFCC33" d="M91.113,38.477H70.665v-30h20.448v4.896H76.425v7.632h12.048V25.9H76.425v7.68h14.688V38.477z"/>
		<path fill="#FFCC33" d="M115.304,8.476l10.8,30H120.2l-2.496-7.104h-12.096l-2.448,7.104h-5.904l10.944-30H115.304z
			 M116.216,26.477l-4.512-12.96l-4.56,12.96H116.216z"/>
		<path fill="#FFCC33" d="M160.472,38.477l-0.24-24.049l-7.824,23.616h-6.144l-7.872-23.616l-0.288,24.049h-5.52l1.008-30h8.112
			l7.728,23.616l7.728-23.616h8.016l0.96,30H160.472z"/>
		<path fill="#FFCC33" d="M187.592,8.476l11.28,30h-2.063l-3.504-9.36h-14.16l-3.504,9.36h-2.017l11.472-30H187.592z
			 M192.584,27.292l-6.288-17.041l-6.433,17.041H192.584z"/>
		<path fill="#FFCC33" d="M228.68,10.396l-0.623,1.728c-2.4-1.536-5.218-2.304-8.449-2.304c-3.393,0-6.199,1.216-8.424,3.648
			c-2.225,2.432-3.336,5.792-3.336,10.08c0,4.193,1.071,7.504,3.217,9.937c2.144,2.433,5.022,3.647,8.64,3.647
			c3.265,0,6.032-0.815,8.305-2.448l0.479,1.873c-2.399,1.601-5.346,2.399-8.832,2.399c-4.256,0-7.633-1.384-10.129-4.151
			c-2.495-2.769-3.743-6.521-3.743-11.257c0-4.704,1.296-8.472,3.889-11.304s5.937-4.248,10.031-4.248
			C223.031,7.996,226.023,8.796,228.68,10.396z"/>
		<path fill="#FFCC33" d="M261.128,38.477h-2.017v-14.16h-18.721v14.16h-2.016v-30h2.016v14.016h18.721V8.476h2.017V38.477z"/>
		<path fill="#FFCC33" d="M274.663,38.477h-2.017v-30h2.017V38.477z"/>
		<path fill="#FFCC33" d="M306.68,35.739V8.476h1.92v30.288h-2.209L288.104,11.26v27.217h-1.92v-30h2.352L306.68,35.739z"/>
		<path fill="#FFCC33" d="M337.254,38.477H320.07v-30h17.184V10.3h-15.168v12.24h12.672v1.824h-12.672v12.288h15.168V38.477z"/>
	</g>
</g>
</svg>
